PathFileType	4	(X/Y/Z)	C:/Users/Rosti/Documents/GitHub/TechForParalysis/Code/Model/04122019 - Marker Volunteer01/Rosti Data/New Session 103.trc	
DataRate	CameraRate	NumFrames	NumMarkers	Units	OrigDataRate	OrigDataStartFrame	OrigNumFrames	
100.00	100.00	15	14	mm	100.00	388	620	
Frame#	Time	C7			PX			T8			IJ			SC			AC			AI			TS			AA			GH			LE			ME			US			RS			
		X1	Y1	Z1	X2	Y2	Z2	X3	Y3	Z3	X4	Y4	Z4	X5	Y5	Z5	X6	Y6	Z6	X7	Y7	Z7	X8	Y8	Z8	X9	Y9	Z9	X10	Y10	Z10	X11	Y11	Z11	X12	Y12	Z12	X13	Y13	Z13	X14	Y14	Z14	

388	3.870	701.99597	11.46768	1534.11206	468.15097	-18.11342	1292.12024	767.38525	6.18893	1319.11157	537.16101	-15.51379	1434.66357	541.49091	9.57558	1442.18616	607.68707	156.30031	1473.34521	737.12988	93.30807	1452.66589	767.29987	90.69500	1336.33472	672.56006	209.42627	1426.25598	632.06976	218.17352	1442.01575	474.37891	295.66513	1208.25598	451.78018	211.93625	1167.06812	208.96675	266.85437	1298.58398	249.42303	313.53946	1344.57104 
389	3.880	702.16919	11.40787	1534.10840	468.31039	-18.20342	1292.11047	767.64868	6.12295	1319.12036	537.30151	-15.68707	1434.64197	541.63745	9.57894	1442.19214	607.72009	156.24072	1473.37244	737.17499	93.24852	1452.64758	767.43744	90.63168	1336.36084	672.56323	209.33728	1426.21680	632.07123	218.11018	1441.97998	474.38428	295.51080	1208.03699	452.10751	212.09503	1166.74951	205.10394	269.74640	1289.33447	244.23567	316.63828	1336.36255 
390	3.890	702.31213	11.36495	1534.11438	468.43143	-18.32095	1292.10046	767.89282	6.07787	1319.13513	537.42017	-15.84066	1434.62024	541.73596	9.55119	1442.21411	607.68323	156.20782	1473.40601	737.18365	93.21741	1452.64539	767.54919	90.58658	1336.39331	672.50580	209.28391	1426.19482	632.01135	218.06075	1441.94067	474.38580	295.49658	1207.76208	452.53998	212.20857	1166.36414	201.68608	272.33804	1280.04407	239.40900	319.64755	1327.90271 
391	3.900	702.41418	11.34212	1534.12390	468.52234	-18.45472	1292.08813	768.11371	6.05478	1319.15540	537.51752	-15.97180	1434.60095	541.80707	9.47601	1442.23682	607.59015	156.17847	1473.42285	737.16626	93.22215	1452.67200	767.63000	90.56808	1336.43201	672.39978	209.27469	1426.20886	631.89319	218.01779	1441.92151	474.35706	295.57727	1207.40222	453.06680	212.23651	1165.92786	198.67703	274.75470	1270.67517	234.94623	322.53848	1319.23584 
392	3.910	702.47870	11.33615	1534.13464	468.60294	-18.58407	1292.06873	768.30792	6.05340	1319.18091	537.59509	-16.07996	1434.58594	541.87500	9.37098	1442.24707	607.46844	156.12903	1473.41260	737.13324	93.26266	1452.72925	767.68073	90.58114	1336.47705	672.26300	209.30824	1426.26379	631.73438	217.96994	1441.93555	474.29770	295.63666	1206.92578	453.64313	212.14055	1165.46130	196.02267	277.17404	1261.15381	230.87036	325.31140	1310.43262 
393	3.920	702.52063	11.33913	1534.14807	468.69058	-18.69226	1292.04529	768.47302	6.07217	1319.21106	537.65515	-16.16681	1434.57593	541.94940	9.26512	1442.24097	607.35022	156.05614	1473.40295	737.09363	93.33012	1452.80835	767.70612	90.62533	1336.52856	672.11505	209.36937	1426.34814	631.55676	217.89607	1441.97534	474.23883	295.57236	1206.32019	454.20114	211.89809	1164.98218	193.69710	279.73416	1251.43481	227.21085	327.98672	1301.56018 
394	3.930	702.55829	11.34186	1534.16748	468.78873	-18.77444	1292.02527	768.60785	6.10848	1319.24524	537.69995	-16.23609	1434.57031	542.02545	9.17871	1442.22632	607.25958	155.96619	1473.41382	737.05389	93.40785	1452.89453	767.71161	90.69463	1336.58533	671.96967	209.43451	1426.43762	631.37714	217.78384	1442.01697	474.21423	295.35916	1205.60217	454.67926	211.51060	1164.50232	191.71974	282.45572	1241.53992	223.96776	330.58765	1292.64014 
395	3.940	702.60046	11.33982	1534.19189	468.88571	-18.84187	1292.00806	768.71259	6.15896	1319.28271	537.73163	-16.29334	1434.56750	542.08801	9.11916	1442.22217	607.19940	155.86395	1473.42639	737.01349	93.47558	1452.97302	767.69958	90.77930	1336.64404	671.83020	209.47957	1426.50403	631.21161	217.65302	1442.03650	474.23474	294.99637	1204.81274	455.05298	211.00246	1164.02649	190.12837	285.20969	1231.55591	221.11102	333.12738	1283.64648 
396	3.950	702.64130	11.33604	1534.21594	468.96402	-18.91543	1291.99170	768.78802	6.21997	1319.32288	537.75208	-16.34496	1434.56519	542.12189	9.07522	1442.23840	607.14636	155.75923	1473.40747	736.96423	93.52020	1453.03394	767.66718	90.86905	1336.69897	671.68829	209.48669	1426.52283	631.06183	217.54195	1442.01599	474.29321	294.47421	1204.00110	455.35214	210.41769	1163.54883	188.94125	287.79550	1221.59753	218.61394	335.60199	1274.54395 
397	3.960	702.66724	11.33908	1534.23499	469.01697	-19.00742	1291.97656	768.83569	6.28805	1319.36499	537.76257	-16.39657	1434.56079	542.12494	9.02003	1442.26843	607.06018	155.67577	1473.35413	736.89508	93.54237	1453.07544	767.60858	90.95557	1336.74414	671.52777	209.45551	1426.48474	630.90009	217.47316	1441.94189	474.38971	293.88297	1203.21497	455.64908	209.80760	1163.04675	188.17204	290.06131	1211.73425	216.47298	337.99142	1265.32654 
398	3.970	702.66376	11.35926	1534.24609	469.04877	-19.12232	1291.95752	768.85742	6.36029	1319.40833	537.76379	-16.45171	1434.55249	542.10138	8.93398	1442.29822	606.90259	155.63217	1473.27625	736.79779	93.55698	1453.10364	767.52142	91.03395	1336.77588	671.33136	209.40996	1426.40186	630.68811	217.44983	1441.81384	474.53043	293.37796	1202.46887	456.01935	209.20906	1162.48486	187.81635	291.99649	1201.95508	214.70172	340.26825	1256.02588 
399	3.980	702.62036	11.40408	1534.24731	469.06696	-19.25922	1291.92542	768.85553	6.43460	1319.45239	537.75555	-16.51127	1434.53906	542.05530	8.81682	1442.31287	606.65784	155.62898	1473.18506	736.66992	93.58640	1453.13074	767.41071	91.10270	1336.79541	671.09058	209.38612	1426.30151	630.40405	217.46309	1441.64880	474.71991	293.03436	1201.72925	456.49777	208.62965	1161.83911	187.85558	293.71872	1192.18872	213.30618	342.40955	1246.69055 
400	3.990	702.53723	11.47403	1534.24194	469.07877	-19.41160	1291.87610	768.83289	6.50988	1319.49695	537.73737	-16.57408	1434.52100	541.99036	8.68743	1442.30566	606.34406	155.65224	1473.09827	736.51593	93.65140	1453.17017	767.28589	91.16415	1336.80908	670.81171	209.40724	1426.21606	630.05713	217.49753	1441.47900	474.95160	292.73557	1200.92603	457.06290	208.04707	1161.12158	188.28090	295.38892	1182.36548	212.27060	344.40814	1237.36279 
401	4.000	702.42596	11.56210	1534.23828	469.08817	-19.56984	1291.81409	768.79285	6.58598	1319.54236	537.70880	-16.63814	1434.49963	541.90991	8.56946	1442.27991	606.00684	155.68205	1473.03381	736.34387	93.76068	1453.23083	767.15466	91.22384	1336.82617	670.51495	209.47101	1426.16992	629.68079	217.54141	1441.34363	475.20630	292.27643	1199.98755	457.65619	207.42059	1160.38232	189.08415	297.12338	1172.47424	211.57852	346.28128	1228.07471 
402	4.010	702.30145	11.65795	1534.24341	469.09598	-19.72462	1291.75281	768.73914	6.66362	1319.58875	537.66919	-16.70163	1434.47705	541.82086	8.47366	1442.24768	605.69470	155.69841	1472.99402	736.16052	93.90513	1453.31323	767.02283	91.28722	1336.85645	670.22589	209.55640	1426.16760	629.31677	217.59790	1441.27405	475.47211	291.54855	1198.89551	458.21454	206.70731	1159.68750	190.23178	298.96698	1162.53247	211.21808	348.06226	1218.83777 
